<?xml version="1.0" encoding="UTF-8"?>
<svg width="637px" height="114px" viewBox="0 0 637 114" version="1.1" xmlns="http://www.w3.org/2000/svg" xmlns:xlink="http://www.w3.org/1999/xlink">
    <!-- Generator: Sketch 59.1 (86144) - https://sketch.com -->
    <title>PRDG_logo_Horizontal_White</title>
    <desc>Created with Sketch.</desc>
    <g id="PRDG_logo_Horizontal_White" stroke="none" stroke-width="1" fill="none" fill-rule="evenodd">
        <path d="M636.9172,93.3107 L628.6862,93.3107 L628.6862,86.1807 C624.8192,91.0397 620.1592,93.6177 612.5222,93.6177 C602.9032,93.6177 595.2662,88.9577 595.2662,78.3467 C595.2662,66.3477 607.9602,62.2807 621.2492,62.2807 L628.6862,62.2807 L628.6862,58.5127 C628.6862,50.2817 625.5132,46.8097 617.5802,46.8097 C610.4402,46.8097 606.4732,49.7857 605.6792,56.1327 L597.4492,56.1327 C598.5402,44.3317 607.9602,39.9677 617.9762,39.9677 C627.8932,39.9677 636.9172,44.0337 636.9172,58.5127 L636.9172,93.3107 Z M628.6862,68.1317 L621.5462,68.1317 C611.1342,68.1317 603.4982,70.7107 603.4982,78.3467 C603.4982,83.7017 606.0772,87.0727 613.3162,87.0727 C622.0422,87.0727 628.6862,82.6107 628.6862,74.5777 L628.6862,68.1317 Z" id="a" fill="#FFFFFF"></path>
        <path d="M511.4527,39.5298 L519.6837,39.5298 L519.6837,48.2308 C522.0637,43.3718 527.7177,39.4048 535.1547,39.4048 C541.7997,39.4048 547.6497,42.1808 550.3267,49.1238 C553.8967,42.3798 561.6337,39.4048 568.0787,39.4048 C577.3997,39.4048 585.5317,44.9588 585.5317,60.0318 L585.5317,92.9928 L577.3017,92.9928 L577.3017,59.4368 C577.3017,50.3128 573.4337,46.5458 566.2937,46.5458 C559.5507,46.5458 552.6077,51.1068 552.6077,60.4278 L552.6077,92.9928 L544.3777,92.9928 L544.3777,59.4368 C544.3777,50.3128 540.5107,46.5458 533.3697,46.5458 C526.6257,46.5458 519.6837,51.1068 519.6837,60.4278 L519.6837,92.9928 L511.4527,92.9928 L511.4527,39.5298 Z" id="m" fill="#FFFFFF"></path>
        <path d="M489.523,65.2877 L489.523,64.5937 C489.523,52.9907 483.176,46.2477 473.061,46.2477 C462.748,46.2477 456.599,53.8837 456.599,64.7917 L456.599,65.5857 C456.599,76.8907 463.838,83.6337 472.566,83.6337 C482.185,83.6337 489.523,76.8907 489.523,65.2877 M449.162,95.1377 L457.591,95.1377 C458.781,101.0877 463.739,104.1617 472.566,104.1617 C482.78,104.1617 489.226,99.3027 489.226,88.1957 L489.226,80.6587 C486.251,85.7167 479.21,90.4757 471.673,90.4757 C458.087,90.4757 448.071,80.1637 448.071,65.8827 L448.071,65.1877 C448.071,51.1067 457.988,39.4047 472.268,39.4047 C480.896,39.4047 486.251,43.5697 489.226,48.6277 L489.226,39.5297 L497.457,39.5297 L497.457,88.6907 C497.358,103.7657 487.143,111.1027 472.665,111.1027 C457.294,111.1027 450.55,103.8647 449.162,95.1377" id="g" fill="#FFFFFF"></path>
        <path d="M429.962,92.993 L438.192,92.993 L438.192,39.53 L429.962,39.53 L429.962,92.993 Z M428.962,25.711 C428.962,22.984 431.235,20.711 433.962,20.711 C436.688,20.711 438.962,22.984 438.962,25.711 C438.962,28.439 436.688,30.711 433.962,30.711 C431.235,30.711 428.962,28.439 428.962,25.711 L428.962,25.711 Z" id="i" fill="#FFFFFF"></path>
        <path d="M407.4575,83.8002 C404.4825,88.8582 397.2425,93.6182 389.7055,93.6182 C376.1195,93.6182 366.3025,83.9982 366.3025,67.8342 L366.3025,67.0402 C366.3025,51.1732 376.2195,39.9672 390.4995,39.9672 C399.1275,39.9672 404.4825,44.1332 407.4575,49.1912 L407.3725,21.7512 L415.6045,21.7512 L415.6885,92.7472 L415.6865,92.7462 L415.6882,93.3107 L407.4572,93.3107 L407.4575,83.8002 Z M391.2925,46.8102 C380.9795,46.8102 374.8305,54.0502 374.8305,66.6442 L374.8305,67.4382 C374.8305,80.5282 381.8715,86.7752 390.5985,86.7752 C400.2175,86.7752 407.7545,80.4282 407.7545,67.1402 L407.7545,66.3472 C407.7545,53.0582 401.4075,46.8102 391.2925,46.8102 Z" id="d" fill="#FFFFFF"></path>
        <path d="M356.3042,93.3107 L348.0732,93.3107 L348.0728,86.1807 C344.2068,91.0397 339.5458,93.6177 331.9098,93.6177 C322.2898,93.6177 314.6538,88.9577 314.6538,78.3467 C314.6538,66.3477 327.3468,62.2807 340.6358,62.2807 L348.0728,62.2807 L348.0728,58.5127 C348.0728,50.2817 344.8998,46.8097 336.9678,46.8097 C329.8268,46.8097 325.8598,49.7857 325.0668,56.1327 L316.8358,56.1327 C317.9268,44.3317 327.3468,39.9677 337.3638,39.9677 C347.2798,39.9677 356.3038,44.0337 356.3038,58.5127 L356.3042,93.3107 Z M348.0728,68.1317 L340.9328,68.1317 C330.5208,68.1317 322.8848,70.7107 322.8848,78.3467 C322.8848,83.7017 325.4638,87.0727 332.7028,87.0727 C341.4288,87.0727 348.0728,82.6107 348.0728,74.5777 L348.0728,68.1317 Z" id="a" fill="#FFFFFF"></path>
        <path d="M281.2545,39.8267 L289.4855,39.8267 L289.4855,49.9157 C292.7585,44.0637 297.2215,39.9987 306.5425,39.7007 L306.5425,47.4357 C296.1295,47.9317 289.4855,51.2047 289.4855,63.9977 L289.4855,93.2887 L281.2545,93.2887 L281.2545,39.8267 Z" id="r" fill="#FFFFFF"></path>
        <path d="M266.8112,93.3107 L258.5802,93.3107 L258.5797,86.1807 C254.7137,91.0397 250.0527,93.6177 242.4167,93.6177 C232.7967,93.6177 225.1607,88.9577 225.1607,78.3467 C225.1607,66.3477 237.8537,62.2807 251.1427,62.2807 L258.5797,62.2807 L258.5797,58.5127 C258.5797,50.2817 255.4067,46.8097 247.4747,46.8097 C240.3337,46.8097 236.3667,49.7857 235.5737,56.1327 L227.3427,56.1327 C228.4337,44.3317 237.8537,39.9677 247.8707,39.9677 C257.7867,39.9677 266.8107,44.0337 266.8107,58.5127 L266.8112,93.3107 Z M258.5797,68.1317 L251.4397,68.1317 C241.0277,68.1317 233.3927,70.7107 233.3927,78.3467 C233.3927,83.7017 235.9707,87.0727 243.2097,87.0727 C251.9357,87.0727 258.5797,82.6107 258.5797,74.5777 L258.5797,68.1317 Z" id="a" fill="#FFFFFF"></path>
        <path d="M193.6158,56.7584 C203.7308,56.7584 209.1848,51.7994 209.1848,42.6764 L209.1848,42.2794 C209.1848,32.2634 203.2348,28.4944 193.6158,28.4944 L181.5168,28.4944 L181.5168,56.7584 L193.6158,56.7584 Z M172.8888,21.5534 L193.0198,21.5534 C206.6058,21.5534 217.8128,27.5034 217.8128,42.2794 L217.8128,42.6764 C217.8128,57.7494 206.5078,63.6004 193.0198,63.6004 L181.5168,63.6004 L181.5168,92.9034 L172.8888,92.9034 L172.8888,21.5534 Z" id="P" fill="#FFFFFF"></path>
        <g id="Imagotipo" transform="translate(-0.000100, -0.000400)">
            <path d="M28.489,99.748 C28.489,107.615 22.111,113.992 14.245,113.992 C6.378,113.992 1.59872116e-14,107.615 1.59872116e-14,99.748 C1.59872116e-14,91.881 6.378,85.504 14.245,85.504 C22.111,85.504 28.489,91.881 28.489,99.748" id="Circulo---imagotipo" fill="#FF4745"></path>
            <path d="M28.7712,7.10542736e-15 L28.7712,71.038 L64.5022,71.038 C84.2372,71.038 100.2342,55.136 100.2342,35.52 L100.2342,35.519 C100.2342,15.902 84.2372,7.10542736e-15 64.5022,7.10542736e-15 L28.7712,7.10542736e-15 Z" id="P---imagotipo" fill="#FFFFFF"></path>
        </g>
    </g>
</svg>