<svg id="Capa_1" data-name="Capa 1" xmlns="http://www.w3.org/2000/svg" viewBox="0 0 74.33 19.24"><defs><style>.cls-1{fill:white;}</style></defs><title>logo-Paradigma</title><path class="cls-1" d="M19.83,17.69a2.47,2.47,0,0,0-2.12,1.1V18.7a.91.91,0,0,0-.9-.95.88.88,0,0,0-.89.93v8a.93.93,0,1,0,1.85,0v-3a2.33,2.33,0,0,0,2.06,1.1c2,0,3.14-1.72,3.14-3.54S21.88,17.69,19.83,17.69Zm-.41,5.51a1.77,1.77,0,0,1-1.65-2,1.69,1.69,0,1,1,3.34,0A1.76,1.76,0,0,1,19.42,23.2Z" transform="translate(-7.78 -12.52)"/><path class="cls-1" d="M27.3,17.69a3.41,3.41,0,0,0-3.59,3.55,3.3,3.3,0,0,0,3.36,3.54,2.22,2.22,0,0,0,2-1v0a.87.87,0,0,0,.9.95.88.88,0,0,0,.9-.95V21.24A3.36,3.36,0,0,0,27.3,17.69Zm0,5.48a1.75,1.75,0,0,1-1.76-1.93A1.79,1.79,0,0,1,27.3,19.3a1.74,1.74,0,0,1,1.75,1.94A1.77,1.77,0,0,1,27.3,23.17Z" transform="translate(-7.78 -12.52)"/><path class="cls-1" d="M36.3,18.53a.79.79,0,0,0-.84-.84,1.82,1.82,0,0,0-1.81,1.18V18.7a1,1,0,0,0-.93-.95.91.91,0,0,0-.94.95v5.09a.94.94,0,0,0,1.87,0V21.37a1.78,1.78,0,0,1,1.81-2,.81.81,0,0,0,.84-.83Z" transform="translate(-7.78 -12.52)"/><path class="cls-1" d="M40.11,17.69a3.41,3.41,0,0,0-3.59,3.55,3.3,3.3,0,0,0,3.35,3.54,2.22,2.22,0,0,0,2-1v0a.86.86,0,0,0,.89.95.87.87,0,0,0,.9-.95V21.24A3.35,3.35,0,0,0,40.11,17.69Zm0,5.48a1.76,1.76,0,0,1-1.77-1.93,1.79,1.79,0,0,1,1.77-1.94,1.74,1.74,0,0,1,1.75,1.94A1.77,1.77,0,0,1,40.11,23.17Z" transform="translate(-7.78 -12.52)"/><path class="cls-1" d="M50.5,14.16a.93.93,0,0,0-.92.93v3.7a2.36,2.36,0,0,0-2.06-1.1c-2.05,0-3.14,1.72-3.14,3.55s1.08,3.54,3.14,3.54a2.48,2.48,0,0,0,2.12-1.1v.09a.9.9,0,0,0,.9.95.88.88,0,0,0,.89-.93v-8.7A.93.93,0,0,0,50.5,14.16Zm-2.58,9a1.76,1.76,0,0,1-1.69-2,1.7,1.7,0,1,1,3.35,0A1.76,1.76,0,0,1,47.92,23.2Z" transform="translate(-7.78 -12.52)"/><path class="cls-1" d="M52.28,15.73a1.05,1.05,0,1,0,1-1.06,1,1,0,0,0-1,1.06Z" transform="translate(-7.78 -12.52)"/><path class="cls-1" d="M52.4,23.79a.93.93,0,0,0,1.86,0V18.68a.93.93,0,0,0-1.86,0Z" transform="translate(-7.78 -12.52)"/><path class="cls-1" d="M61.23,17.75a.9.9,0,0,0-.9.95v.09a2.47,2.47,0,0,0-2.12-1.1,3.12,3.12,0,0,0-3.14,3.4,3.13,3.13,0,0,0,3.14,3.41,2.33,2.33,0,0,0,2.06-1.1v.89c0,1.25-.46,1.85-1.81,1.85a3.28,3.28,0,0,1-1.31-.26,2.38,2.38,0,0,0-.9-.26.65.65,0,0,0-.74.68A.83.83,0,0,0,56,27a5.58,5.58,0,0,0,2.43.58c2.52,0,3.7-1.23,3.7-3.44v-5.5A.89.89,0,0,0,61.23,17.75Zm-2.61,5.17a1.67,1.67,0,0,1-1.69-1.83,1.68,1.68,0,1,1,3.34,0A1.68,1.68,0,0,1,58.62,22.92Z" transform="translate(-7.78 -12.52)"/><path class="cls-1" d="M74.19,23.79v-3c0-1.86-.87-3.13-2.74-3.13a2.85,2.85,0,0,0-2.39,1.16,2.44,2.44,0,0,0-2.16-1.16A2.17,2.17,0,0,0,65,18.82V18.7a.93.93,0,0,0-.93-.95.91.91,0,0,0-.92.95v5.09a.93.93,0,1,0,1.85,0V21c0-.82.36-1.61,1.4-1.61s1.34.71,1.34,1.61v2.82a1,1,0,0,0,1,.93.93.93,0,0,0,.92-.93V21c0-.82.38-1.61,1.4-1.61s1.34.71,1.34,1.61v2.82a.93.93,0,0,0,.93.93,1,1,0,0,0,1-.93Z" transform="translate(-7.78 -12.52)"/><path class="cls-1" d="M78.54,17.69a3.41,3.41,0,0,0-3.6,3.55,3.31,3.31,0,0,0,3.36,3.54,2.19,2.19,0,0,0,2-1v0a.87.87,0,0,0,.9.95.88.88,0,0,0,.9-.95V21.24A3.35,3.35,0,0,0,78.54,17.69Zm0,5.48a1.75,1.75,0,0,1-1.77-1.93,1.79,1.79,0,0,1,1.77-1.94,1.74,1.74,0,0,1,1.74,1.94A1.77,1.77,0,0,1,78.54,23.17Z" transform="translate(-7.78 -12.52)"/><path class="cls-1" d="M7.78,22.11c.06-.51,1.08-.61,1.08-1.76V15a3.46,3.46,0,0,1,.32-1.49,1.63,1.63,0,0,1,.7-.72,2.65,2.65,0,0,1,1.35-.27,2.19,2.19,0,0,1,.57,0,.73.73,0,0,1,.51.79.7.7,0,0,1-.58.72h-.27a2.38,2.38,0,0,0-.63.1.86.86,0,0,0-.32.71v5.37c0,1-.2,1.39-.42,1.6a1.06,1.06,0,0,0-.23.28.93.93,0,0,0,.23.27c.22.22.42.61.42,1.61v5.37a.82.82,0,0,0,.32.7,1.77,1.77,0,0,0,.63.1l.27,0c.37,0,.58.42.58.72a.74.74,0,0,1-.51.79,1.82,1.82,0,0,1-.57,0,2.54,2.54,0,0,1-1.35-.27,1.6,1.6,0,0,1-.7-.71,3.52,3.52,0,0,1-.32-1.49V23.93c0-1.15-1-1.25-1.08-1.76Z" transform="translate(-7.78 -12.52)"/></svg>