<?xml version="1.0" encoding="UTF-8"?>
<!DOCTYPE svg PUBLIC "-//W3C//DTD SVG 1.1//EN" "http://www.w3.org/Graphics/SVG/1.1/DTD/svg11.dtd">
<!-- Creator: CorelDRAW 2018 (64 Bit) -->
<svg xmlns="http://www.w3.org/2000/svg" xml:space="preserve" width="58.8492mm" height="23.7384mm" version="1.1" style="shape-rendering:geometricPrecision; text-rendering:geometricPrecision; image-rendering:optimizeQuality; fill-rule:evenodd; clip-rule:evenodd"
viewBox="0 0 1899.16 766.08"
 xmlns:xlink="http://www.w3.org/1999/xlink">
 <defs>
  <style type="text/css">
   <![CDATA[
    .fil0 {fill:#FF4745;fill-rule:nonzero}
   ]]>
  </style>
 </defs>
 <g id="Capa_x0020_1">
  <metadata id="CorelCorpID_0Corel-Layer"/>
  <path class="fil0" d="M42.89 3.51l76.26 0c24.25,0 42.3,6.43 54.13,19.29 11.83,12.86 17.75,31.7 17.75,56.54l0 155.16c0,24.84 -5.92,43.68 -17.75,56.54 -11.83,12.86 -29.88,19.29 -54.13,19.29l-76.26 0 0 -306.81zm48.21 43.83l0 219.15 27.18 0c7.6,0 13.59,-2.19 17.97,-6.57 4.39,-4.38 6.58,-12.12 6.58,-23.23l0 -159.54c0,-11.1 -2.19,-18.85 -6.58,-23.23 -4.38,-4.39 -10.37,-6.58 -17.97,-6.58l-27.18 0zm286.21 262.98l-48.65 0 -8.33 -55.67 -59.17 0 -8.33 55.67 -44.27 0 49.09 -306.81 70.57 0 49.09 306.81zm-110.01 -97.3l46.46 0 -23.23 -155.16 -23.23 155.16zm102.56 -209.51l149.02 0 0 43.83 -50.4 0 0 262.98 -48.21 0 0 -262.98 -50.4 0 0 -43.83zm310.32 306.81l-48.65 0 -8.33 -55.67 -59.17 0 -8.33 55.67 -44.27 0 49.09 -306.81 70.57 0 49.09 306.81zm-110.01 -97.3l46.46 0 -23.23 -155.16 -23.23 155.16zm125.79 -78.02l87.66 0 0 43.83 -87.66 0 0 -43.83zm116.58 -57.86c0,-24.84 6.28,-43.9 18.85,-57.2 12.57,-13.3 30.68,-19.94 54.35,-19.94 23.67,0 41.78,6.65 54.35,19.94 12.56,13.3 18.85,32.36 18.85,57.2l0 159.54c0,17.24 -3.07,31.56 -9.2,42.95 1.17,2.92 2.7,4.75 4.6,5.48 1.9,0.73 4.89,1.09 8.98,1.09l4.38 0 0 42.95 -6.57 0c-10.81,0 -19.65,-1.83 -26.52,-5.48 -6.87,-3.65 -11.91,-8.84 -15.12,-15.56 -4.97,1.75 -10.23,3.14 -15.78,4.16 -5.55,1.02 -11.54,1.54 -17.97,1.54 -23.67,0 -41.79,-6.65 -54.35,-19.94 -12.56,-13.3 -18.85,-32.36 -18.85,-57.2l0 -159.54zm48.21 162.61c0,11.1 2.27,18.92 6.79,23.45 4.53,4.53 10.59,6.79 18.19,6.79 7.6,0 13.66,-2.27 18.19,-6.79 4.53,-4.53 6.79,-12.35 6.79,-23.45l0 -165.68c0,-11.1 -2.27,-18.92 -6.79,-23.45 -4.53,-4.53 -10.59,-6.79 -18.19,-6.79 -7.6,0 -13.66,2.27 -18.19,6.79 -4.53,4.53 -6.79,12.35 -6.79,23.45l0 165.68zm285.33 70.57l-48.65 0 -8.33 -55.67 -59.17 0 -8.33 55.67 -44.27 0 49.09 -306.81 70.57 0 49.09 306.81zm-110.01 -97.3l46.46 0 -23.23 -155.16 -23.23 155.16z"/>
  <path class="fil0" d="M96.66 762.15l-53.97 0 0 -343.45 53.97 0 0 147.19 61.33 0 0 -147.19 54.95 0 0 343.45 -54.95 0 0 -147.19 -61.33 0 0 147.19zm155.53 -343.45l53.97 0 0 343.45 -53.97 0 0 -343.45zm174.18 152.1l75.56 0 0 108.92c0,27.8 -6.79,49.15 -20.36,64.03 -13.57,14.88 -33.61,22.32 -60.1,22.32 -26.49,0 -46.53,-7.44 -60.11,-22.32 -13.57,-14.88 -20.36,-36.22 -20.36,-64.03l0 -178.59c0,-27.8 6.79,-49.15 20.36,-64.03 13.57,-14.88 33.61,-22.32 60.11,-22.32 26.49,0 46.54,7.45 60.1,22.32 13.57,14.88 20.36,36.24 20.36,64.03l0 33.36 -51.02 0 0 -36.8c0,-12.43 -2.54,-21.18 -7.61,-26.25 -5.07,-5.07 -11.86,-7.61 -20.36,-7.61 -8.51,0 -15.29,2.54 -20.36,7.61 -5.07,5.07 -7.6,13.83 -7.6,26.25l0 185.46c0,12.42 2.54,21.1 7.6,26 5.07,4.9 11.86,7.36 20.36,7.36 8.5,0 15.29,-2.46 20.36,-7.36 5.06,-4.9 7.61,-13.57 7.61,-26l0 -63.29 -24.53 0 0 -49.06zm164.36 191.35l-53.97 0 0 -343.45 53.97 0 0 147.19 61.33 0 0 -147.19 54.95 0 0 343.45 -54.95 0 0 -147.19 -61.33 0 0 147.19zm155.53 -343.45l53.97 0 0 294.38 88.8 0 0 49.06 -142.78 0 0 -343.45zm167.31 0l53.97 0 0 343.45 -53.97 0 0 -343.45zm174.18 152.1l75.56 0 0 108.92c0,27.8 -6.79,49.15 -20.36,64.03 -13.57,14.88 -33.61,22.32 -60.1,22.32 -26.49,0 -46.53,-7.44 -60.11,-22.32 -13.57,-14.88 -20.36,-36.22 -20.36,-64.03l0 -178.59c0,-27.8 6.79,-49.15 20.36,-64.03 13.57,-14.88 33.61,-22.32 60.11,-22.32 26.49,0 46.54,7.45 60.1,22.32 13.57,14.88 20.36,36.24 20.36,64.03l0 33.36 -51.02 0 0 -36.8c0,-12.43 -2.54,-21.18 -7.61,-26.25 -5.07,-5.07 -11.86,-7.61 -20.36,-7.61 -8.51,0 -15.29,2.54 -20.36,7.61 -5.07,5.07 -7.6,13.83 -7.6,26.25l0 185.46c0,12.42 2.54,21.1 7.6,26 5.07,4.9 11.86,7.36 20.36,7.36 8.5,0 15.29,-2.46 20.36,-7.36 5.06,-4.9 7.61,-13.57 7.61,-26l0 -63.29 -24.53 0 0 -49.06zm164.36 191.35l-53.97 0 0 -343.45 53.97 0 0 147.19 61.33 0 0 -147.19 54.95 0 0 343.45 -54.95 0 0 -147.19 -61.33 0 0 147.19zm-1252.11 -423.14l1899.16 0 0 49.07 -416.47 0 0 374.08 -53.97 0 0 -374.08 -1428.72 0 0 -49.07zm1594.84 224.43l74.09 0 0 49.07 -74.09 0 0 100.58 93.22 0 0 49.06 -147.19 0 0 -343.45 147.19 0 0 49.07 -93.22 0 0 95.67zm239.43 198.71c-0.66,-2.29 -1.31,-4.41 -1.96,-6.38 -0.66,-1.96 -1.23,-4.42 -1.72,-7.36 -0.49,-2.94 -0.82,-6.71 -0.98,-11.29 -0.16,-4.58 -0.25,-10.3 -0.25,-17.17l0 -53.97c0,-16.03 -2.79,-27.31 -8.34,-33.85 -5.56,-6.54 -14.56,-9.81 -26.99,-9.81l-18.64 0 0 139.83 -53.97 0 0 -343.45 81.45 0c28.13,0 48.49,6.54 61.08,19.63 12.59,13.08 18.89,32.88 18.89,59.37l0 26.99c0,35.32 -11.78,58.55 -35.33,69.67 13.74,5.56 23.14,14.64 28.21,27.23 5.07,12.59 7.61,27.89 7.61,45.87l0 52.99c0,8.5 0.33,15.95 0.98,22.33 0.65,6.37 2.29,12.84 4.91,19.38l-54.95 0zm-58.88 -294.38l0 105.49 21.1 0c10.14,0 18.07,-2.62 23.79,-7.85 5.72,-5.23 8.59,-14.72 8.59,-28.46l0 -33.85c0,-12.43 -2.21,-21.43 -6.63,-26.99 -4.41,-5.56 -11.37,-8.34 -20.85,-8.34l-26 0z"/>
 </g>
</svg>
